<?xml version="1.0" encoding="utf-8"?>
<!-- Uploaded to: SVG Repo, www.svgrepo.com, Generator: SVG Repo Mixer Tools -->
<svg width="64px" height="64px" viewBox="0 0 1024 1024" class="icon"  version="1.1" xmlns="http://www.w3.org/2000/svg"><path d="M707.348413 35.610388c41.206306-13.735435 89.534689-2.543599 120.057879 29.50575 34.084228 36.119108 35.610388 80.886452 24.927271 127.179956-7.630797 33.575508-10.174397 65.116138 4.578479 97.674206 10.683116 23.401112 28.48831 39.680146 46.293504 56.976621 32.049349 32.049349 44.767345 72.238215 27.47087 115.98812-17.296474 45.276064-59.0115 72.238215-100.726525 93.095728-26.453431 13.226715-49.854543 26.962151-56.976621 57.99406-4.578478 21.366233-2.543599 43.749905-1.526159 65.624858 1.526159 40.697586-1.01744 82.921332-34.084228 111.409642-42.223746 36.119108-99.200366 28.99703-149.054909 45.276064-28.99703 9.665677-56.467901 29.50575-58.50278 62.572539-1.01744 17.805194 2.034879 36.627827-10.683116 51.380702-24.927271 28.99703-86.48237 23.909832-120.057879 18.822633-49.345823-7.630797-94.621888-28.99703-132.267155-61.555098l-16.787754 16.787754c-43.241185 42.223746-89.025969 83.938771-149.563629 99.200366-15.770315 4.069759-22.383672-20.348793-6.613358-24.418552 60.537659-15.261595 105.305004-60.028939 148.54619-102.761405-44.258625-29.50575-88.51725-62.572539-110.392203-112.427081-19.840073-44.258625-16.279034-99.709086 20.857513-134.302034 18.313914-16.787754 38.662707-18.822634 60.537659-28.48831 24.418552-10.683116 16.279034-28.48831 6.613358-47.819664-6.104638-12.209276-11.700556-23.909832-15.261595-37.136547-14.752875-49.854543-5.087198-104.287564 35.101668-138.880512 17.296474-14.752875 37.645267-25.435991 59.0115-32.558069 21.874952-7.630797 29.50575-18.822634 28.99703-42.223746-0.50872-13.735435-0.50872-27.97959-1.017439-41.715025-1.01744-41.206306-7.630797-93.095728 17.296474-128.706116 24.418552-34.592948 74.781814-34.084228 112.427081-27.979591 31.540629 5.087198 63.589978 20.857513 95.639327 13.735436 21.874952-4.578478 40.697586-17.805194 57.48534-32.049349 30.01447-25.944711 58.50278-56.97662 97.674207-70.203336z m-447.673446 842.440031c30.52319-30.52319 60.537659-61.046379 89.534689-92.587009 0.50872-4.069759 3.052319-7.630797 7.630797-8.648237l19.840073-21.366232c8.139517-9.156957 16.279034-18.822634 24.418552-27.979591-1.01744-1.01744-2.543599-2.034879-3.561039-3.561038-24.927271-38.662707-43.749905-80.377732-56.97662-124.636358-4.578478-15.770315 19.840073-22.383672 24.418551-6.613357 11.700556 41.206306 29.50575 79.360293 52.398142 114.97068 31.031909-37.136547 60.028939-75.799254 86.991091-116.49684-14.244155-31.540629-21.874952-64.607418-22.383673-99.709086 0-16.279034 24.927271-16.279034 24.927272 0 0 25.435991 4.578478 50.363263 13.226715 74.273095 26.453431-42.223746 49.854543-86.48237 69.185896-133.284594 6.104638-14.752875 30.52319-8.139517 24.418552 6.613357-10.174397 24.418552-21.366233 48.328383-33.575508 71.729496 5.087198 5.087198 34.084228 5.087198 38.662706 5.595918 15.261595 1.526159 30.01447 2.034879 45.276065 2.543599 16.279034 0.50872 16.279034 25.435991 0 24.927271-21.874952-0.50872-43.749905-2.034879-65.624858-5.087198-10.174397-1.526159-21.366233-2.034879-30.014469-6.613358-47.819664 86.48237-107.848603 165.842663-173.982181 239.607038-2.034879 2.543599-4.578478 4.578478-6.613357 7.122078 43.241185 5.595918 91.060849 9.156957 130.740995-3.561039 15.261595-5.087198 21.874952 19.331353 6.613357 24.418552-48.328383 15.770315-107.848603 8.139517-157.703145 1.526159-27.470871 29.50575-55.450461 58.50278-83.430052 86.99109 42.732465 36.627827 97.165487 57.48534 153.633387 56.976621 13.226715 0 26.962151-1.01744 40.188867-3.561039 20.857513-4.578478 25.944711-16.279034 26.453431-36.627828 0.50872-20.348793 3.561039-37.645267 16.279034-53.924301 29.50575-39.171427 78.851573-44.767345 123.618918-51.889422 27.97959-4.578478 59.52022-10.683116 80.886452-32.049349 17.805194-17.805194 21.366233-43.241185 21.366233-67.151017 0-37.136547-7.122078-76.816694 8.139517-111.409642 16.787754-38.153987 56.467901-49.345823 89.534689-69.185896 41.715026-24.927271 88.00853-75.799254 62.063819-127.688676-11.191836-22.383672-33.066789-36.627827-48.837104-54.941742-11.700556-13.226715-20.857513-28.48831-26.96215-45.276064-17.805194-45.784784-4.578478-83.938771 2.543599-129.723556 8.648237-56.97662-33.066789-109.374762-92.078289-107.848603-77.325413 2.034879-113.953241 96.656767-189.752494 107.848603-48.837103 7.122078-95.130607-21.366233-144.985151-16.279034-57.48534 5.595918-55.450461 60.537659-54.941741 105.813724 0.50872 26.453431 1.01744 52.906862 1.52616 78.851573 0 16.279034 1.01744 34.084228-13.735436 44.767344-16.787754 12.209276-40.697586 13.735435-59.011499 23.401112-20.348793 11.191836-39.171427 26.962151-48.837104 48.837104-12.209276 26.453431-10.174397 57.48534-1.526159 84.95621 6.613358 20.348793 21.366233 38.153987 25.435991 59.0115 7.630797 37.136547-26.453431 49.345823-54.433021 58.50278-55.450461 18.313914-67.659737 78.851573-43.749905 127.688676 20.857513 45.276064 62.572539 74.273095 102.761405 100.726526z" fill="#056137" /><path d="M349.209656 784.954691c-28.99703 31.540629-59.52022 62.572539-89.534689 92.587008-40.188866-26.453431-81.903892-54.941741-103.778845-99.709086-23.909832-48.837103-11.700556-109.374762 43.749905-127.688676 28.48831-9.156957 62.063819-21.366233 54.433022-58.50278-4.069759-20.857513-19.331353-38.662707-25.435992-59.0115-8.648237-27.470871-10.683116-58.50278 1.52616-84.956211 9.665677-21.366233 28.48831-37.645267 48.837103-48.837103 18.313914-10.174397 42.223746-11.700556 59.0115-23.401112 14.752875-10.683116 14.244155-28.48831 13.735435-44.767344l-1.526159-78.851573c-1.01744-45.276064-2.543599-100.217806 54.941741-105.813724 49.854543-4.578478 96.148047 23.401112 144.98515 16.279034 75.799254-11.191836 112.427081-105.813724 189.752495-107.848603 59.0115-1.526159 100.726525 50.871983 92.078288 107.848603-7.122078 45.784784-20.348793 83.938771-2.543599 129.723556 6.613358 16.279034 15.770315 31.540629 26.962151 45.276064 15.770315 18.313914 38.153987 32.558069 48.837103 54.941741 25.944711 51.889422-20.857513 102.761405-62.063819 127.688677-33.575508 19.840073-72.746935 31.031909-89.534689 69.185896-15.770315 35.101668-8.139517 74.781814-8.139517 111.409642 0 24.418552-3.561039 49.345823-21.366233 67.151017-20.857513 21.366233-52.398142 27.470871-80.886452 32.049349-44.767345 7.122078-94.113168 12.717996-123.618918 51.889422-12.717996 16.787754-15.770315 33.575508-16.279034 53.924301-0.50872 20.348793-5.595918 32.049349-26.453431 36.627828-13.226715 3.052319-26.962151 3.561039-40.188866 3.561038-56.467901 0-110.900922-20.348793-153.633387-56.97662 28.48831-28.48831 56.467901-57.48534 83.430051-86.99109 50.363263 6.613358 109.374762 13.735435 157.703146-1.52616 15.261595-5.087198 8.648237-29.50575-6.613358-24.418551-39.680146 12.717996-87.49981 9.156957-130.740995 3.561039 2.034879-2.543599 4.578478-4.578478 6.613358-7.122078 66.133577-74.273095 126.162517-153.124667 173.98218-239.607038 8.648237 4.578478 19.840073 5.087198 30.01447 6.613358 21.874952 3.052319 43.749905 4.578478 65.624857 5.087198 16.279034 0.50872 16.279034-24.927271 0-24.927271-15.261595-0.50872-30.01447-1.01744-45.276064-2.543599-5.087198-0.50872-33.575508-0.50872-38.662707-5.595918 12.209276-23.401112 23.401112-47.310944 33.575508-71.729496 6.104638-14.752875-18.313914-21.366233-24.418551-6.613358-19.331353 46.293504-42.732465 90.552129-69.185896 133.284595-8.648237-23.909832-13.226715-48.328383-13.226716-74.273095 0-16.279034-25.435991-16.279034-24.927271 0 0 35.101668 7.630797 68.168457 22.383672 99.709086-26.453431 40.188866-55.959181 78.851573-86.99109 116.49684-22.892392-36.119108-40.188866-74.273095-52.398142-114.970681-4.578478-15.261595-28.99703-8.648237-24.418552 6.613358 12.717996 44.258625 31.540629 85.97365 56.976621 124.636357 1.01744 1.526159 2.034879 2.543599 3.561038 3.561039-8.139517 9.156957-16.279034 18.822634-24.418551 27.979591l-19.840073 21.366232c-3.052319 0-6.104638 3.561039-6.613358 7.630798z" fill="#3B9548" /></svg>