<?xml version="1.0" encoding="utf-8"?>
<!-- Uploaded to: SVG Repo, www.svgrepo.com, Generator: SVG Repo Mixer Tools -->
<svg width="64px" height="64px" viewBox="0 0 1024 1024" class="icon"  version="1.1" xmlns="http://www.w3.org/2000/svg"><path d="M799.744 794.624c-1.536 0-2.56 0-3.584 0.512h-1.536s0-0.512-0.512-0.512c-22.528-24.576-45.568-49.664-68.096-74.24-11.264-12.288-29.184 6.144-17.92 17.92 22.528 24.576 45.056 49.664 68.096 74.24 1.024 1.536 2.56 2.048 4.096 3.072-4.096 48.64-17.408 100.352-66.56 121.856-24.064 10.752-50.176 12.288-76.288 9.728-31.232-2.56-53.248-8.192-72.192-35.328-23.552-32.768-30.208-78.848-37.376-117.248-7.68-39.936-12.8-79.872-22.528-119.296 0-1.536-0.512-2.56-1.024-3.584 0-0.512-0.512-0.512-0.512-1.024 0 0 0-0.512-0.512-0.512-3.072-4.096-7.68-5.632-12.288-4.608h-0.512-0.512c-4.608 1.024-8.704 4.096-9.728 9.728v2.56c-1.024 91.136-16.896 216.576-101.888 269.312-44.544 27.648-94.72 20.48-123.904-24.576-26.112-39.936-27.136-93.184-25.6-139.776v-2.048c26.624-25.088 52.736-49.664 78.848-74.752 12.288-11.264-6.144-29.696-17.92-17.92-27.136 25.6-54.272 51.2-81.92 76.8l-1.536 1.536c-42.496 5.12-90.112 0.512-116.224-37.888-23.552-34.816-23.552-80.384-4.096-116.736 44.032-81.408 137.728-89.088 220.672-91.648 22.528 0.512 44.032 0.512 62.976 1.024 16.384 0.512 16.384-25.088 0-25.6-13.312-0.512-26.624-1.024-39.936-1.024-1.024-0.512-2.56-0.512-3.584-0.512h-6.656c-35.84-1.024-71.168-2.048-106.496-5.632-51.712-5.632-108.032-22.016-138.24-67.072-24.064-35.84-34.304-112.128-8.192-148.992 33.28-46.592 99.328-38.4 148.992-29.184 27.648 27.648 55.296 54.784 82.944 82.432 11.776 11.776 29.696-6.656 17.92-17.92-25.6-25.6-51.2-50.688-76.8-76.288 0-1.024 0-2.56-0.512-3.584-2.56-49.664-6.656-108.032 32.768-145.408 41.472-39.424 110.592-22.528 153.088 5.12 63.488 41.472 62.976 121.344 59.904 195.072-0.512 3.072-1.024 6.656-1.024 9.728 0 2.048 0 3.584 0.512 5.12-1.024 24.064-2.048 47.104-0.512 67.584 1.024 16.384 26.624 16.384 25.6 0-2.048-24.576-1.024-49.152 0-73.728 4.608-44.032 15.872-86.528 35.328-125.952 18.432-37.376 40.96-79.36 82.432-93.184 43.008-13.824 92.672 7.68 123.904 37.376 32.768 30.72 41.984 75.776 41.984 119.296-19.456 17.408-39.424 35.328-58.88 52.736-12.288 11.264 5.632 29.184 17.92 17.92l61.44-55.296 0.512-0.512h0.512c45.568-19.968 102.4-11.264 135.68 27.136 36.864 42.496 25.6 94.208-12.288 130.56-66.048 63.488-171.008 97.792-261.12 98.816h-19.968c-16.384 0.512-16.384 26.112 0 25.6 51.2-1.536 101.888 5.632 151.04 22.016 44.544 14.848 94.208 36.864 125.44 73.216 32.768 38.4 29.696 92.672-2.56 130.56-32.256 38.4-84.992 44.032-131.072 43.008z m-240.64-262.144c10.24-39.424-5.12-88.064-48.128-97.28-1.536-1.536-3.584-3.072-6.656-3.584-37.376-7.168-73.216 20.992-81.408 56.832-8.704 35.84 14.336 73.216 48.128 86.016 35.328 13.312 78.336-4.608 88.064-41.984z" fill="#DF99A6" /><path d="M510.976 435.2c43.008 9.216 58.368 57.856 48.128 97.28-9.728 37.376-53.248 55.296-88.064 42.496-34.304-12.8-56.832-50.176-48.128-86.016 8.704-36.352 44.032-64.512 81.408-56.832 3.072 0 5.12 1.536 6.656 3.072z m-35.84 113.664c62.464 30.72 87.04-76.8 28.672-89.088-2.56-0.512-4.608-1.536-6.144-3.072-25.6-5.12-49.664 21.504-51.2 45.568-1.024 18.944 11.264 37.888 28.672 46.592z" fill="#D26D76" /><path d="M503.808 459.776c58.368 12.288 33.792 119.808-28.672 89.088-17.408-8.704-29.696-27.648-28.672-47.104 1.536-24.064 25.088-50.176 51.2-45.568 1.536 1.536 3.584 3.072 6.144 3.584z" fill="#DF99A6" /><path d="M490.496 666.112c4.608-1.024 9.728 0.512 12.288 4.608l0.512 0.512c0 0.512 0.512 0.512 0.512 1.024 0.512 1.024 1.024 2.56 1.024 3.584 9.728 39.424 14.848 79.872 22.528 119.296 7.168 38.912 14.336 84.48 37.376 117.248 18.944 26.624 40.96 32.256 72.192 35.328 26.112 2.048 52.224 0.512 76.288-9.728 49.152-21.504 61.952-73.216 66.56-121.856-1.536-0.512-2.56-1.536-4.096-3.072-22.528-24.576-45.056-49.664-68.096-74.24-11.264-12.288 7.168-30.208 17.92-17.92 22.528 24.576 45.568 49.664 68.096 74.24l0.512 0.512h1.536c1.024-0.512 2.048-0.512 3.584-0.512 46.08 1.024 98.816-5.12 130.56-42.496 32.256-37.888 35.328-92.16 2.56-130.56-31.232-36.352-80.896-58.368-125.44-73.216-48.64-16.384-99.84-23.04-151.04-22.016-16.384 0.512-16.384-25.088 0-25.6h19.968c90.112-1.024 195.072-34.816 261.12-98.816 37.888-36.352 48.64-88.064 12.288-130.56-33.28-38.4-90.112-47.104-135.68-27.136h-0.512l-0.512 0.512-61.44 55.296c-12.288 10.752-30.208-7.168-17.92-17.92 19.456-17.408 39.424-35.328 58.88-52.736 0-43.52-9.216-88.576-41.984-119.296-31.232-29.696-80.896-51.2-123.904-37.376-41.472 13.824-64 55.808-82.432 93.184-19.456 39.424-31.232 82.432-35.328 125.952-1.024 24.576-2.048 49.152 0 73.728 1.024 16.384-24.576 16.384-25.6 0-1.536-20.48-0.512-43.52 0.512-67.584-0.512-1.536-0.512-3.072-0.512-5.12 0.512-3.584 1.024-6.656 1.024-9.728 3.072-73.728 3.584-153.6-59.904-195.072-42.496-27.648-111.616-44.544-153.088-5.12-39.424 37.376-35.328 95.744-32.768 145.408 0.512 1.024 0.512 2.56 0.512 3.584 25.6 25.6 51.2 51.2 76.8 76.288 11.776 11.776-6.656 29.696-17.92 17.92-27.648-27.648-55.296-54.784-82.944-82.432-49.664-9.216-116.224-17.408-148.992 29.184-26.112 36.864-15.872 113.152 8.192 148.992 30.72 45.568 87.04 61.952 138.24 67.072 35.328 3.584 71.168 4.608 106.496 5.632h6.656c1.536 0 2.56 0 3.584 0.512 13.312 0.512 26.624 0.512 39.936 1.024 16.384 0.512 16.384 26.112 0 25.6-18.944-0.512-40.448-0.512-62.976-1.024-82.944 2.56-176.64 10.24-220.672 91.648-19.456 36.352-19.456 82.432 4.096 116.736 26.112 38.4 73.728 43.008 116.224 37.888l1.536-1.536c27.136-25.6 54.272-51.2 81.92-76.8 11.776-11.264 30.208 6.656 17.92 17.92-26.112 25.088-52.736 49.664-78.848 74.752v2.048c-2.048 46.08-0.512 99.84 25.6 139.776 29.184 45.056 79.36 52.736 123.904 24.576 84.992-52.736 100.864-178.176 101.888-269.312v-2.048-0.512c1.024-5.632 4.608-8.704 9.728-9.728h0.512c0.512-0.512 1.024-0.512 1.024-0.512z m460.288-429.056c41.984 32.768 61.44 89.088 37.888 138.752-24.576 51.712-81.408 84.48-131.072 107.52-26.624 12.288-54.272 22.528-82.432 29.696 24.576 5.632 48.128 13.312 71.68 23.04 49.152 20.48 103.936 50.688 126.464 102.4 19.968 45.568 5.632 99.328-27.136 135.168-35.328 38.912-90.112 47.616-140.288 47.104-4.608 50.176-18.432 101.888-62.976 131.072-22.528 14.848-50.176 21.504-77.312 22.528-24.064 1.024-57.856 1.024-80.384-9.728-47.104-22.016-64-79.872-74.24-126.464-5.12-21.504-8.704-43.008-12.288-65.024-13.312 87.04-48.64 176.128-131.584 208.384-49.152 18.944-96.768 4.096-128.512-37.376-31.744-41.984-36.864-99.84-35.328-151.04-45.056 4.096-92.672-2.048-123.904-37.376-29.696-33.28-38.912-82.944-26.624-125.44 13.824-48.128 52.224-87.04 96.768-108.032 9.728-4.608 19.968-8.704 30.208-11.776-64-12.8-119.808-40.96-141.312-106.496-16.896-50.688-20.992-123.904 22.528-162.304 42.496-37.376 99.84-33.792 152.576-24.576-2.048-55.296-1.024-115.712 43.52-155.648 40.448-36.352 104.96-33.28 152.064-11.776 49.664 22.016 80.896 59.904 94.208 112.64 2.048 8.192 3.584 16.896 5.12 25.088 6.656-18.432 14.848-35.84 24.576-53.248 24.064-42.496 50.688-80.384 101.376-90.112 49.664-9.216 103.424 15.36 138.24 49.664 32.256 32.256 44.544 77.312 46.592 121.856 43.52-13.824 93.184-8.192 131.584 21.504z" fill="#D26D76" /></svg>