<?xml version="1.0" encoding="utf-8"?>
<!-- Uploaded to: SVG Repo, www.svgrepo.com, Generator: SVG Repo Mixer Tools -->
<svg width="64px" height="64px" viewBox="0 0 1024 1024" class="icon"  version="1.1" xmlns="http://www.w3.org/2000/svg"><path d="M984.576 317.44l-10.24 169.472c-1.024 7.68-27.648 235.008-144.896 292.864-119.296 58.368-271.872-10.24-273.408-10.752l-2.048-1.024h-8.192c87.04-67.072 173.568-137.728 251.904-215.04 71.68-70.144 130.048-152.576 186.88-235.52z" fill="#C0F9C8" /><path d="M749.056 281.6l235.52 7.68c-60.416 88.576-121.856 177.152-198.144 252.416-78.336 76.8-164.352 147.456-250.88 214.016-7.68-51.712-11.776-103.936-13.824-156.672-0.512-14.336-1.024-29.184-1.024-44.032 24.064-10.24 40.96-28.672 57.344-48.64 20.992-25.088 44.544-47.616 67.072-71.68 43.008-44.544 74.24-98.304 103.936-153.088z" fill="#C0F9C8" /><path d="M669.696 161.28c35.84 52.736 60.416 102.4 65.536 112.64-28.16 51.712-57.344 102.912-97.792 146.944-20.48 22.528-43.008 43.008-62.976 66.048-16.384 18.944-31.744 40.448-54.272 51.712-0.512-49.664 0-98.816 1.024-148.48 0.512-0.512 1.024-0.512 1.536-1.024 38.912-32.768 72.192-71.168 98.304-114.688 12.288-20.48 23.04-41.984 31.744-64 6.144-15.36 13.824-32.256 16.896-49.152z" fill="#C0F9C8" /><path d="M654.848 142.848c4.096 23.04-13.312 54.784-22.528 75.264-8.704 19.456-18.944 38.912-30.208 56.832-22.016 35.328-49.152 66.56-79.872 93.696 1.536-44.544 3.072-89.088 4.608-133.12 2.56-68.096 6.656-136.192 10.752-204.288 43.008 19.456 83.968 63.488 117.248 108.544-0.512 1.024-0.512 2.048 0 3.072zM521.728 33.792c-6.656 104.448-11.776 208.896-14.336 313.344-27.136-20.48-43.52-51.2-60.416-80.896-20.992-36.352-41.984-73.216-62.976-109.568 53.76-62.976 112.64-105.984 137.728-122.88zM506.368 366.08c-0.512 12.8-0.512 26.112-1.024 38.912-1.024 41.472-1.536 83.456-1.536 125.44-98.304-53.248-153.088-148.48-203.776-244.224l2.048-4.096c18.432-41.984 43.52-79.36 69.632-112.128 22.016 37.888 43.52 75.776 65.536 113.152 18.944 32.256 37.888 62.976 69.12 82.944zM397.312 722.432c23.552 20.992 50.176 39.936 78.848 51.712-102.912 31.232-178.688 27.648-179.712 27.648h-0.512c-58.368-1.024-107.008-21.504-144.384-61.44-99.328-107.52-88.064-321.024-87.552-330.24 1.536-26.112-9.216-87.552-16.384-122.88 11.776 12.8 21.504 27.648 29.184 43.52 11.264 25.088 16.384 52.736 25.6 78.336 14.848 41.472 40.448 78.336 70.656 110.592 34.304 36.864 74.24 68.096 112.64 100.352 39.424 32.256 73.728 68.608 111.616 102.4z" fill="#C0F9C8" /><path d="M521.216 769.024h-4.608c-43.52-6.656-80.384-32.768-112.64-61.952-35.84-32.768-69.12-67.584-106.496-98.304-72.704-60.416-152.576-121.344-182.784-215.04-7.68-24.576-13.824-50.176-24.576-73.216-8.192-16.896-18.944-32.768-31.744-46.08l225.28 12.8C336.384 389.12 394.24 491.008 500.224 546.304c1.536 1.024 3.072 1.024 4.608 1.024 1.024 69.12 4.608 138.752 14.336 207.36 0.512 4.608 1.024 9.728 2.048 14.336z" fill="#C0F9C8" /><path d="M1006.592 270.848L993.28 488.448c-1.024 10.24-27.648 245.248-155.648 308.224-38.912 18.944-80.896 26.112-120.32 26.112-82.432 0-153.6-29.696-167.424-35.328l-9.728 0.512c9.728 52.736 23.552 103.936 43.008 154.112 3.584 9.728-11.776 13.824-15.36 4.096-19.968-51.2-34.304-103.936-44.032-157.696l-31.744 1.024c-110.592 35.328-190.976 32.256-196.608 31.744-64-1.024-116.736-24.064-157.696-68.096-103.424-111.104-94.208-320.512-92.672-344.064 2.048-34.304-20.992-142.336-20.992-143.36l-2.56-12.288 266.24 15.36C361.472 108.544 517.12 14.336 523.776 10.24l3.584-2.048 4.096 1.536c109.568 37.888 201.216 217.6 218.624 252.928 0.512 0 0.512 0.512 1.024 0.512l255.488 7.68z m-32.256 216.064l10.24-169.472c-56.832 82.944-115.2 165.376-186.88 235.52-78.336 77.312-164.864 147.456-251.904 215.04h8.192l2.048 1.024c1.536 0.512 154.112 69.12 273.408 10.752C946.688 721.92 973.312 494.592 974.336 486.912z m10.24-197.632l-235.52-7.68c-29.696 54.784-60.928 108.544-103.936 154.624-22.528 23.552-45.568 46.592-67.072 71.68-16.896 19.456-33.792 38.4-57.344 48.64 0.512 14.848 0.512 29.184 1.024 44.032 2.048 52.224 6.144 104.96 13.824 156.672 87.04-67.072 172.544-137.216 250.88-214.016 76.8-76.8 137.728-165.376 198.144-253.952z m-249.344-15.36c-5.12-10.24-29.696-59.904-65.536-112.64-3.072 16.896-10.752 33.792-16.896 49.152-9.216 22.016-19.456 43.52-31.744 64-26.112 43.52-59.392 81.92-98.304 114.688-0.512 0.512-1.024 0.512-1.536 1.024-1.024 49.664-1.536 99.328-1.024 148.48 22.528-11.776 37.888-32.768 54.272-51.712 19.968-23.04 41.984-44.032 62.976-66.048 40.448-44.032 69.632-95.232 97.792-146.944z m-102.912-55.808c9.216-20.48 26.112-52.224 22.528-75.264v-3.072c-33.28-45.056-73.728-88.576-117.248-108.544-4.608 68.096-8.192 136.192-10.752 204.288-2.048 44.544-3.584 89.088-4.608 133.12 30.72-27.648 57.856-58.88 79.872-93.696 11.264-17.92 21.504-37.376 30.208-56.832zM516.608 769.024h4.608c-1.024-5.12-1.536-9.728-2.048-14.848-9.728-68.608-13.312-137.728-14.336-207.36-1.536 0-3.072 0-4.608-1.024-105.984-54.784-163.84-156.672-216.576-258.56l-225.28-12.8c12.8 13.824 23.552 29.184 31.744 46.08 11.264 23.552 16.896 48.64 24.576 73.216 30.208 93.696 110.592 154.624 182.784 215.04 37.376 31.232 70.656 65.536 106.496 98.304 32.256 29.696 69.12 55.808 112.64 61.952zM506.88 347.136c3.072-104.448 7.68-208.896 14.336-313.344-25.088 16.896-83.968 59.392-138.24 122.88 20.992 36.352 41.984 73.216 62.976 109.568 17.408 29.696 33.792 60.416 60.928 80.896z m-1.024 57.856c0.512-13.312 0.512-26.112 1.024-38.912-31.744-19.968-50.688-50.688-68.608-82.944-21.504-37.888-43.52-75.776-65.536-113.152-26.624 32.768-51.2 70.144-69.632 112.128l-2.048 4.096c50.176 96.256 104.96 191.488 203.776 244.224-0.512-41.472 0-83.456 1.024-125.44zM476.16 774.144c-29.184-11.776-55.296-30.72-78.848-51.712-37.376-33.792-72.192-70.144-111.104-102.4-38.912-32.256-78.336-63.488-112.64-100.352-29.696-32.256-55.296-69.12-70.656-110.592-9.216-25.6-14.336-53.248-25.6-78.336-7.168-16.384-17.408-30.72-29.184-43.52 6.656 35.328 17.92 96.768 16.384 122.88-0.512 9.216-11.776 222.72 87.552 330.24 37.376 39.936 85.504 60.928 144.384 61.44h0.512c0.512 0 76.288 3.584 179.2-27.648z" fill="#66A771" /></svg>