<?xml version="1.0" encoding="utf-8"?>
<!-- Uploaded to: SVG Repo, www.svgrepo.com, Generator: SVG Repo Mixer Tools -->
<svg width="64px" height="64px" viewBox="0 0 1024 1024" class="icon"  version="1.1" xmlns="http://www.w3.org/2000/svg"><path d="M980.992 288.256c-69.12-4.096-138.24 2.048-204.8 18.432-6.144-48.64-10.24-97.792-13.312-146.944 0-1.024 0-2.56-0.512-3.584-1.024-4.096-4.096-6.656-7.68-7.168-1.024 0-2.048-0.512-3.584 0h-0.512-0.512c-1.024 0-2.048 0.512-3.072 1.024-45.056 20.992-76.8 58.88-105.472 97.792-10.24-78.848-33.792-156.16-70.144-227.84-5.12-9.728-18.432-3.072-17.408 6.144-31.232 62.976-52.224 129.536-63.488 198.144-43.008-23.04-85.504-47.104-127.488-72.192-2.56-1.536-4.608-1.536-6.656-1.024-3.584 0-6.656 2.56-7.168 6.656-9.216 53.248 5.12 103.936 22.528 154.112-70.144-22.528-144.384-33.28-218.624-32.768-9.216 0-11.776 11.264-6.656 16.384 0 1.536 0.512 2.56 1.536 4.096 41.472 54.784 90.112 102.4 145.408 142.336-50.688 12.8-101.376 28.672-140.288 65.024-2.56 2.048-3.072 4.608-3.072 7.168 0 3.072 1.024 6.144 4.608 7.68 43.008 20.48 85.504 42.496 126.976 65.024-49.152 37.888-92.672 81.92-130.56 131.584-1.024 1.536-1.536 2.56-1.536 4.096-5.12 5.12-2.56 16.384 6.656 16.384 70.144 1.024 139.264-8.704 205.824-28.672 1.536 46.592 2.048 93.696 1.024 140.8 0 3.072 1.024 5.12 2.56 6.656 2.048 2.56 5.12 4.096 9.216 2.56 47.104-17.408 82.432-52.224 115.2-89.088 9.728 76.8 32.256 151.552 66.56 221.184-1.024 9.216 12.288 15.872 17.408 6.144 31.232-61.44 53.248-126.976 65.024-194.56 42.496 24.064 83.968 49.664 124.928 76.288 3.072 2.048 5.632 2.048 7.68 1.024 3.072-0.512 5.12-2.56 6.144-6.656 10.24-49.664-0.512-97.792-14.848-144.896 64 27.136 131.584 44.544 201.216 52.224 10.752 1.024 11.776-12.8 4.096-17.408-36.864-62.464-82.944-122.368-136.192-173.568 43.52-24.064 88.064-46.592 132.608-68.096 3.584-1.536 5.12-4.608 4.608-7.68 0-2.56-0.512-5.12-3.072-7.168C929.28 473.6 882.176 457.728 834.56 445.44c56.832-37.376 107.52-83.456 151.552-136.192 2.048-2.56 2.56-5.12 2.048-7.68 3.072-6.144 0-12.8-7.168-13.312z m-334.848-13.824c28.16-38.4 57.344-77.824 98.816-101.376 3.072 45.568 7.168 90.624 12.8 136.192 0 1.024 0.512 1.536 0.512 2.048-37.888 10.24-75.264 24.064-111.104 40.448 0.512-25.6 0-50.688-2.048-76.288 0-0.512 0.512-0.512 1.024-1.024zM394.24 316.416c-15.872-45.056-31.744-92.16-27.648-140.8 39.424 23.552 79.36 46.08 119.808 67.584 0.512 0.512 1.536 0.512 2.048 1.024-5.12 37.376-6.656 75.264-5.12 113.664-28.672-14.848-57.856-27.648-88.064-38.4-0.512-1.024-1.024-2.048-1.024-3.072zM177.664 511.488c37.888-30.208 86.016-42.496 132.608-53.76 1.536-0.512 2.56-1.024 3.584-2.048 30.208 20.48 62.464 38.4 95.744 53.76-38.912 17.92-75.264 39.936-110.08 64.512-39.936-21.504-80.384-42.496-121.856-62.464z m205.824 325.12c0.512-44.032 0-88.064-1.536-132.096 35.84-11.776 70.656-26.624 104.448-44.032-1.024 28.16-0.512 56.832 2.048 84.48-30.208 35.84-62.464 71.68-104.96 91.648z m379.392 19.456c-38.4-24.576-77.824-48.64-117.76-71.168-0.512-0.512-1.024-0.512-1.536-0.512 5.632-38.4 8.192-76.8 7.168-115.712 28.672 19.456 58.88 36.352 90.112 51.2 14.336 43.52 27.648 89.6 22.016 136.192z m181.248-344.576c-41.472 19.968-82.432 40.96-122.88 63.488-1.024 0.512-1.536 1.024-2.048 1.536-29.696-27.136-61.44-51.712-95.232-72.704 31.232-12.8 61.44-28.16 90.624-45.568 45.056 11.264 92.16 24.064 129.536 53.248z m-244.224-18.432c-1.024 0.512-1.536 0.512-2.048 1.024-0.512 0.512-1.024 0.512-1.536 1.024-3.584 3.584-4.608 9.216-1.024 13.312 1.024 1.536 2.56 3.072 4.608 3.584 100.352 58.88 184.32 149.504 245.248 248.32-108.032-14.848-210.944-55.808-300.032-118.784-7.68-5.632-14.848 3.072-13.312 10.24v2.048c4.608 109.056-16.896 217.6-63.488 315.904-46.592-99.84-68.096-209.92-62.464-320.512 0-2.56-0.512-5.12-2.048-6.656-1.536-5.12-7.68-9.216-13.824-5.632-96.768 52.736-204.288 81.408-314.368 82.944 69.632-88.576 160.256-158.208 263.68-202.752 9.728-4.096 3.584-16.896-5.12-17.408-102.4-44.544-193.024-113.664-262.144-201.728 110.08 1.536 217.6 29.696 314.368 82.944 6.144 3.584 12.288-0.512 13.824-5.632 1.536-1.536 2.56-3.584 2.048-6.656-5.632-110.592 15.872-220.16 62.464-320.512 46.592 98.816 68.096 206.848 63.488 315.904-0.512 6.144 4.096 9.216 8.704 9.216 2.56 1.024 5.12 1.024 8.192 0 99.328-48.128 209.408-71.168 319.488-67.072-72.192 82.944-161.28 148.48-264.704 186.88z" fill="#BE4B53" /><path d="M542.72 416.768h-1.536c-0.512 0-1.536 0-2.048 0.512-45.568 10.24-47.616 59.904-42.496 98.304 6.656 47.616 53.248 68.608 97.792 59.904 44.032-8.704 54.272-62.976 51.712-100.864-4.096-55.808-57.856-60.928-103.424-57.856z m49.152 139.776c-31.744 7.168-69.632-5.632-76.288-39.936-5.12-28.16-6.144-72.704 28.16-80.896 16.896-1.024 33.792-1.024 50.176 2.048 22.016 4.608 32.256 17.408 33.28 39.424 1.536 27.648-3.072 71.68-35.328 79.36z" fill="#BE4B53" /></svg>