<?xml version="1.0" encoding="utf-8"?>
<!-- Uploaded to: SVG Repo, www.svgrepo.com, Generator: SVG Repo Mixer Tools -->
<svg width="64px" height="64px" viewBox="0 0 1024 1024" class="icon"  version="1.1" xmlns="http://www.w3.org/2000/svg"><path d="M961.024 633.856c1.536 5.12-0.512 10.752-7.168 12.288-30.72 7.168-62.464 11.776-93.696 10.24 23.552 19.968 43.008 45.568 60.928 72.192 3.584 5.632 1.024 10.752-3.584 13.312-1.024 1.024-2.56 2.048-4.608 3.072-114.688 40.96-246.272 21.504-344.064-50.688-30.72 114.688-117.248 209.408-228.864 251.392-3.584 1.024-6.144 0.512-8.192-1.024-3.584-1.536-6.144-4.096-6.656-8.704-3.584-31.232-5.12-62.464 0-92.672-22.528 20.992-49.664 37.888-77.312 52.224-5.12 2.56-9.728 1.024-12.288-2.56-1.536-1.024-3.072-3.072-3.584-5.632-28.16-117.248 3.584-243.712 83.456-333.824-114.688-23.552-215.04-103.424-262.656-210.944-1.024-2.048-1.024-3.584-1.024-5.12-1.536-5.12 0-10.752 6.656-12.288 31.744-5.632 63.488-9.216 94.72-5.632-22.528-21.504-40.96-47.616-57.344-74.752-3.072-5.632-1.024-10.752 3.072-13.312 1.024-1.536 2.56-2.56 4.608-3.072 113.664-34.816 239.104-11.776 333.312 59.904 33.792-117.76 125.952-212.992 242.688-250.88 3.072-1.024 5.12-0.512 7.168 0.512 4.096 1.024 7.68 4.096 8.192 9.216 2.048 31.232 2.048 62.976-4.096 92.672 23.04-19.968 50.688-35.328 79.36-48.128 4.608-2.048 8.704-1.024 11.264 1.536 2.048 1.024 4.096 3.072 4.608 6.656 23.04 118.784-14.336 243.712-98.304 329.728 116.224 18.944 219.136 93.184 272.384 199.168 1.024 1.536 1.024 3.584 1.024 5.12z m-153.088-9.728c41.984 16.384 85.504 13.312 129.024 4.608-54.272-99.84-156.16-169.472-269.824-181.248-10.752-1.024-12.8-14.848-5.632-19.456 0.512-1.024 1.536-2.56 2.56-3.584 82.944-78.848 122.368-196.096 104.448-309.248-38.912 18.944-75.776 43.008-98.816 81.408-3.584 5.632-9.728 6.144-13.824 3.584s-7.168-8.192-3.584-13.824c22.528-38.4 25.6-81.92 23.552-125.44-107.52 38.4-191.488 129.536-220.672 240.128 0 0.512-0.512 1.024-0.512 1.536 5.632 8.704-7.168 19.968-16.384 12.288-87.04-73.728-207.872-99.328-317.44-69.632 23.552 37.376 51.2 71.168 92.16 89.6 5.12 2.56 6.144 7.168 4.608 11.264-2.048 5.12-8.192 9.728-14.848 6.656-39.936-17.92-83.968-16.384-126.464-9.728 50.176 102.912 149.504 176.64 263.68 193.536 10.24 1.536 9.216 13.824 2.048 18.432-0.512 1.024-1.024 2.048-2.048 3.072-78.848 82.432-112.64 201.728-89.6 312.832 38.4-20.992 73.728-46.592 95.232-86.016 2.56-5.12 7.68-6.144 11.776-4.608 5.12 2.048 9.216 8.192 6.144 14.848-20.48 39.424-22.016 82.944-17.92 126.464 105.984-43.008 185.344-138.752 209.408-250.368 2.56-11.264 17.408-8.704 19.968 0.512 0.512 0 0.512 0.512 1.024 0.512 91.136 70.144 212.992 91.648 322.048 56.32C873.472 693.248 844.8 660.48 803.84 644.096c-6.656-2.56-8.192-10.24-5.632-15.36 0.512-4.096 4.608-6.656 9.728-4.608z" fill="#D6395D" /><path d="M936.96 628.736c-43.008 8.704-86.528 12.288-129.024-4.608-5.12-2.048-9.216 0.512-11.264 4.608-2.56 5.12-1.024 12.8 5.632 15.36 40.96 16.384 69.632 49.152 94.208 84.48-109.568 34.816-230.912 13.824-322.048-56.32-0.512-0.512-0.512-0.512-1.024-0.512-2.048-9.216-17.408-11.776-19.968-0.512-23.552 111.616-102.912 206.848-208.896 250.368-4.096-43.008-3.072-87.04 17.92-126.464 3.584-6.656-0.512-12.8-6.144-14.848-4.096-1.536-9.216-1.024-11.776 4.608-20.992 39.424-56.832 65.024-95.232 86.016-23.04-111.616 10.752-230.4 89.6-312.832 1.024-1.024 1.536-2.048 2.048-3.072 7.168-4.608 8.192-16.896-2.048-18.432C225.28 519.168 125.952 445.952 75.776 343.04c42.496-6.656 86.528-8.704 126.464 9.728 6.656 3.072 12.8-1.024 14.848-6.656 1.536-4.096 0.512-8.704-4.608-11.264-40.96-18.944-68.608-52.736-92.16-89.6 109.568-29.696 230.4-4.096 317.44 69.632 9.216 7.68 22.016-3.584 16.384-12.288 0-0.512 0.512-1.024 0.512-1.536 29.184-110.592 113.152-201.728 220.672-240.128 2.048 43.52-1.024 87.04-23.552 125.44-3.584 5.632-0.512 11.264 3.584 13.824s10.752 2.56 13.824-3.584c22.528-38.4 59.392-61.952 98.816-81.408 18.432 112.64-21.504 230.4-104.448 309.248-1.024 1.024-2.048 2.56-2.56 3.584-6.656 4.096-4.608 18.432 5.632 19.456 113.664 11.776 216.064 81.408 270.336 181.248z m-215.552 7.168c12.288 5.12 17.408-14.848 5.632-19.968-36.864-15.36-71.68-35.328-102.912-60.416 2.048-6.656 3.584-13.824 5.12-20.48 10.752-54.784-3.584-131.072-55.808-160.256v-0.512c8.192-43.008 51.2-67.584 62.976-109.568 3.584-12.8-16.384-18.432-19.968-5.632-11.264 40.96-52.736 65.024-61.952 107.52-56.32-8.704-121.344-14.336-163.84 32.256-9.216 9.728-15.872 21.504-20.48 34.816-0.512 0-0.512-0.512-1.024-0.512-34.304-21.504-68.608-43.008-102.4-64.512-11.264-7.168-21.504 10.752-10.24 17.92 34.304 21.504 68.608 43.008 102.4 64.512 2.048 1.536 4.096 1.536 6.144 1.536-7.68 36.864-2.048 79.36 11.264 110.08 10.752 25.6 27.648 43.52 48.128 54.784-18.432 32.768-36.352 66.048-52.736 99.84-5.632 11.776 11.776 22.016 17.92 10.24 16.896-34.304 34.816-68.096 54.272-101.376 20.992 7.68 44.544 9.728 69.12 8.704 28.16-1.536 58.88-4.608 80.896-24.064 10.752-9.728 18.432-21.504 24.064-34.304 31.232 24.064 66.048 44.032 103.424 59.392z" fill="#DCA6CA" /><path d="M727.04 615.936c12.288 5.12 6.656 25.088-5.632 19.968-37.888-15.36-72.704-35.328-104.96-60.416-5.632 12.8-13.312 24.576-24.064 34.304-22.016 19.456-52.224 23.04-80.896 24.064-24.576 1.024-48.128-1.024-69.12-8.704-18.944 33.28-36.864 67.072-54.272 101.376-5.632 11.776-23.552 1.536-17.92-10.24 16.896-33.792 34.304-67.072 52.736-99.84-20.48-11.264-37.376-29.184-48.128-54.784-13.312-30.72-18.944-73.216-11.264-110.08-2.048 0-4.096 0-6.144-1.536-34.304-21.504-68.608-43.008-102.4-64.512-11.264-7.168-1.024-24.576 10.24-17.92 34.304 21.504 68.608 43.008 102.4 64.512 0.512 0 0.512 0.512 1.024 0.512 4.608-13.312 11.264-25.088 20.48-34.816 42.496-46.08 107.52-40.96 163.84-32.256 9.728-41.984 50.688-66.048 61.952-107.52 3.584-12.8 23.04-7.168 19.968 5.632-11.264 41.984-54.272 67.072-62.976 109.568v0.512c52.224 29.184 66.56 105.984 55.808 160.256-1.536 6.656-3.072 13.824-5.12 20.48 32.768 26.112 67.584 46.592 104.448 61.44z m-124.928-58.88c16.896-51.712 14.848-145.92-47.104-168.96l-3.072-1.536c-55.808-8.704-140.8-15.36-162.816 52.736-17.408 52.736-5.632 135.168 48.128 162.816 26.624 13.824 59.392 12.8 88.064 10.24 37.888-3.072 64.512-18.432 76.8-55.296z" fill="#D6395D" /><path d="M554.496 388.096c62.464 23.04 64 116.736 47.104 168.96-11.776 36.864-38.4 52.224-76.288 55.808-29.184 2.56-61.44 3.584-88.064-10.24-53.76-27.648-65.536-110.08-48.128-162.816 22.016-68.096 107.008-61.44 162.816-52.736 0.512 0.512 1.536 1.024 2.56 1.024z" fill="#DCA6CA" /></svg>