<?xml version="1.0" encoding="utf-8"?>
<!-- Uploaded to: SVG Repo, www.svgrepo.com, Generator: SVG Repo Mixer Tools -->
<svg width="64px" height="64px" viewBox="0 0 1024 1024" class="icon"  version="1.1" xmlns="http://www.w3.org/2000/svg"><path d="M981.504 556.032l-22.528 8.192c-93.184 34.304-155.648 87.552-185.344 158.208-22.528 52.224-17.408 95.744-17.408 95.744l4.096 31.232-22.016-22.528c-42.496-44.544-92.16-61.44-146.432-50.176-40.96 8.704-69.632 30.208-69.632 30.208l-0.512 0.512v182.272h-20.992v-189.44c-83.456-55.296-222.72 15.872-224.256 16.896l-19.968 10.752 5.12-22.016c36.864-161.28-195.584-247.296-198.144-248.32l-33.792-12.288 34.816-7.68c82.432-18.432 57.344-148.992 57.344-150.528l-3.584-17.408 16.896 5.12c33.28 10.24 60.416 9.216 80.896-3.072 29.184-17.408 35.84-51.2 35.84-51.712l9.216-48.128 11.264 47.616c7.68 32.256 59.904 70.656 89.088 89.088 25.6-77.824-27.136-204.8-27.648-206.336l-7.168-17.408 18.432 3.072c125.952 19.456 159.232-122.88 160.256-129.024l8.704-39.424 11.264 38.912c19.968 67.072 48.64 109.056 86.016 125.44 37.376 15.872 69.12 0.512 69.632 0.512l27.136-13.312-12.8 27.136c-35.84 75.264-31.232 167.936-27.136 206.848l106.496-95.232 5.12 15.36c22.528 69.12 124.416 49.152 124.928 48.64l18.944-4.096-7.168 17.92c-42.496 111.104 40.448 155.136 44.032 156.672l20.992 11.776z m-48.128-4.096c-25.6-20.992-67.584-70.144-42.496-154.112-40.96 4.096-100.864-3.072-125.952-51.2L652.8 446.464l-3.072-18.432c-1.024-5.12-20.48-118.272 17.408-218.112-15.872 3.072-38.912 3.584-63.488-7.168-33.792-14.848-61.44-46.592-81.92-94.72v243.712c3.072 3.584 2.56 7.68 0 10.24v100.352c11.264-13.824 22.016-27.648 33.28-41.472 7.168-8.704 19.456 3.584 12.288 12.288-15.36 18.944-30.208 37.888-45.568 56.832v179.2c36.352-38.4 72.704-77.312 112.128-112.64 1.024-20.48 1.536-41.472 2.048-61.952 0.512-11.264 17.92-11.264 17.408 0-0.512 15.36-1.024 30.208-1.536 45.568 23.552-20.992 48.64-43.008 76.8-54.272 10.24-4.096 14.848 12.8 4.608 16.896-16.384 6.656-31.232 19.968-45.056 30.72-15.872 12.8-31.744 26.112-46.592 39.424C630.272 583.68 619.52 593.92 609.28 604.16c34.816 16.896 71.68 28.16 109.568 34.304 11.264 2.048 6.144 18.432-4.608 16.896-40.448-6.656-78.848-18.944-115.712-36.864-1.024-0.512-1.536-1.024-2.048-1.536-25.088 25.6-49.664 52.224-74.752 77.824v87.552C540.16 771.072 578.56 752.64 624.64 752.64c34.304 0 73.216 10.24 111.104 42.496 1.024-19.456 5.12-47.616 18.432-79.872 20.48-50.176 68.608-117.76 179.2-163.328z m-432.64 224.256V640h-1.024c-41.984-14.336-82.944-30.72-123.392-49.152 0 2.048-1.024 3.584-3.072 5.12-26.112 20.48-55.296 35.328-87.552 43.008-10.752 2.56-15.36-14.336-4.608-16.896 29.184-7.168 55.808-19.968 79.872-38.912-0.512-0.512-1.536-0.512-2.048-1.024-23.552-11.264-46.592-23.552-69.12-36.352-22.016-12.8-43.52-26.112-69.12-30.208-11.264-2.048-6.144-18.432 4.608-16.896 22.528 3.584 42.496 14.336 62.464 25.6 14.336 8.192 28.16 15.872 42.496 23.552-1.024-22.016-3.072-43.52-7.168-65.536-2.048-11.264 14.848-15.872 16.896-4.608 4.608 24.576 7.168 49.152 8.192 74.24 0 1.536-0.512 3.072-1.024 4.096 3.072 1.536 5.632 3.072 8.704 4.608 27.648 13.824 55.296 26.112 83.456 37.376-1.536-39.424-4.608-78.848-9.216-118.272-1.536-11.264 16.384-11.264 17.408 0 5.12 41.472 8.192 83.456 9.216 125.44 14.336 5.632 28.672 10.752 43.008 15.36v-266.752c-21.504-22.528-38.912-48.128-52.224-76.8-4.608-10.24 10.24-18.944 14.848-8.704 10.24 21.504 22.528 40.96 37.376 58.88v-203.264c-24.064 41.984-67.072 88.576-141.312 84.992 14.848 40.96 48.128 148.992 16.896 217.6l-4.608 10.24-9.728-5.632c-3.584-2.048-69.632-40.448-98.304-83.968-6.656 13.312-17.92 29.184-36.352 40.448-22.528 13.312-50.176 16.384-81.92 9.216 5.632 48.128 0 119.808-50.176 148.992 23.552 10.752 60.416 29.696 95.744 56.832 69.632 54.272 102.4 117.76 94.72 185.344 41.472-15.872 141.824-51.2 216.064-11.776z" fill="#0CAFAF" /><path d="M890.88 397.312c-25.088 84.48 16.896 133.12 42.496 154.112-110.592 46.08-158.72 113.664-179.712 163.328-13.312 32.256-17.408 60.416-18.432 79.872-37.888-31.744-76.8-42.496-111.104-42.496-46.08 0-83.968 18.432-102.912 29.696v-87.04c25.088-25.6 49.664-52.224 74.752-77.824 0.512 0.512 1.536 1.024 2.048 1.536 36.864 17.92 75.264 30.208 115.712 36.864 10.752 2.048 15.872-14.848 4.608-16.896-38.4-6.144-74.752-17.408-109.568-34.304 10.24-10.24 20.992-20.48 31.744-30.208 14.848-13.824 30.72-27.136 46.592-39.424 13.824-10.752 28.672-24.064 45.056-30.72 10.24-4.096 5.632-20.992-4.608-16.896-27.648 11.264-53.248 33.28-76.8 54.272 0.512-15.36 1.024-30.72 1.536-45.568 0.512-11.264-16.896-11.264-17.408 0-0.512 20.48-1.536 41.472-2.048 61.952-39.424 35.328-75.264 74.24-112.128 112.64v-179.2c15.36-18.944 30.208-37.888 45.568-56.832 7.168-8.704-5.12-20.992-12.288-12.288-11.264 13.824-22.016 27.648-33.28 41.472v-100.352c2.56-3.072 3.072-7.168 0-10.24v-243.712c20.48 48.128 48.128 79.872 81.92 94.72 24.576 10.752 47.616 10.24 63.488 7.168-37.888 99.84-18.432 212.992-17.408 218.112l3.072 18.432 112.128-100.352c26.624 47.104 86.528 54.272 126.976 50.176zM500.736 640v135.68c-74.24-39.424-174.592-4.096-215.552 13.824 7.68-67.072-25.088-130.56-94.72-185.344-35.328-27.648-72.192-46.592-95.744-56.832 50.176-28.672 55.808-100.864 50.176-148.992 32.256 7.168 59.392 4.096 81.92-9.216 18.432-11.264 29.696-27.136 36.352-40.448C291.84 392.704 358.4 431.104 361.472 433.152l9.728 5.632 4.608-10.24c31.744-69.12-2.048-177.152-16.896-217.6 73.728 4.096 117.248-43.008 141.312-84.992v203.264c-14.848-17.92-27.136-37.888-37.376-58.88-4.608-10.24-19.968-1.536-14.848 8.704 13.312 28.16 30.72 53.76 52.224 76.8v266.752l-43.008-15.36c-1.536-41.984-4.608-83.456-9.216-125.44-1.536-11.264-18.944-11.264-17.408 0 4.608 39.424 7.68 78.848 9.216 118.272-28.16-11.264-56.32-23.552-83.456-37.376-3.072-1.536-5.632-3.072-8.704-4.608 0.512-1.024 1.024-2.56 1.024-4.096-1.024-25.088-3.584-49.664-8.192-74.24-2.048-11.264-18.944-6.144-16.896 4.608 4.096 21.504 6.144 43.52 7.168 65.536-14.336-7.68-28.672-15.36-42.496-23.552-19.968-11.264-39.424-22.016-62.464-25.6-11.264-1.536-15.872 14.848-4.608 16.896 25.6 4.096 47.104 17.408 69.12 30.208 22.528 12.8 45.568 25.088 69.12 36.352 0.512 0.512 1.536 0.512 2.048 1.024-24.064 18.432-50.688 31.232-79.872 38.912-10.752 2.56-6.144 19.456 4.608 16.896 32.256-8.192 61.44-22.528 87.552-43.008 2.048-1.536 3.072-3.584 3.072-5.12 39.936 18.432 81.408 34.816 123.392 49.152-0.512-2.048 0-2.048 0.512-2.048z" fill="#8FE2DE" /></svg>