<?xml version="1.0" encoding="utf-8"?>
<!-- Uploaded to: SVG Repo, www.svgrepo.com, Generator: SVG Repo Mixer Tools -->
<svg width="64px" height="64px" viewBox="0 0 1024 1024" class="icon"  version="1.1" xmlns="http://www.w3.org/2000/svg"><path d="M817.664 756.736c-13.824-37.376-45.056-66.56-74.24-92.16-12.288-11.264-25.6-21.504-38.912-30.72 40.448-1.536 78.336 5.632 111.104 34.816 33.28 29.696 53.248 75.776 63.488 119.296-56.32 9.216-122.88 14.336-168.96-24.576-20.992-17.408-45.056-38.4-48.128-66.56-2.56-20.992-2.56-42.496-2.048-64 24.576 12.8 47.104 29.696 67.584 48.128 25.6 23.04 56.32 49.664 68.608 82.432 5.12 12.8 26.624 7.168 21.504-6.656zM843.264 239.104c27.136 72.192 41.472 169.472-1.536 236.032-22.528 34.816-46.08 67.584-87.04 81.408-32.256 10.752-67.072 19.968-100.864 26.624 12.8-36.352 31.232-72.192 48.64-106.496 18.944-37.888 40.96-73.728 68.608-105.984 9.728-10.752-6.144-26.624-15.872-15.872-29.184 33.28-52.224 70.656-72.192 110.08-15.872 31.744-32.768 64.512-46.08 98.304-14.848-74.752-40.96-150.016 16.896-214.528 49.664-55.808 121.344-84.992 189.44-109.568z" fill="#64A06E" /><path d="M377.856 391.168c26.112 39.424 20.992 97.28 21.504 142.848 0.512 25.088 0 50.176-1.024 75.264-1.024 23.552-1.536 48.128-14.848 68.608-22.016 34.304-65.024 66.56-107.008 68.608 0.512-26.624 0.512-53.248 0.512-79.36h0.512C342.016 645.12 361.472 577.024 363.52 515.072c1.024-27.648 1.536-60.416-17.92-82.432-17.408-19.456-43.52-26.112-68.608-25.088v-30.208c0-10.752-0.512-22.016-0.512-32.768 39.424-4.096 79.36 12.8 101.376 46.592z" fill="#F4C57B" /><path d="M421.888 534.016c-0.512-52.224 3.584-116.224-29.184-160.256-27.136-36.352-71.68-56.32-116.736-52.224-0.512-20.992-0.512-41.984-1.024-62.976 27.648-0.512 55.808 0.512 79.872 15.872 23.04 15.36 37.888 39.424 50.176 64 13.824 27.648 26.624 56.32 33.792 86.528 7.68 33.792 6.144 69.12 5.632 103.424-0.512 32.256-1.536 65.024-3.072 97.28-2.048 34.816 0 73.728-18.432 104.448-14.336 24.064-36.352 47.104-56.832 66.56-24.576 23.552-55.808 45.056-91.136 39.936 0.512-22.528 0.512-45.056 1.024-67.072 47.104-1.024 90.624-33.792 118.784-69.12 35.84-44.032 27.648-113.664 27.136-166.4z" fill="#F4C57B" /><path d="M331.264 451.072c13.312 19.456 10.24 49.152 9.216 71.68-2.56 46.592-16.896 100.352-63.488 119.808 0.512-71.168 0.512-142.336 0-213.504 19.968-0.512 42.496 4.096 54.272 22.016z" fill="#F4C57B" /><path d="M841.728 474.624c43.008-66.56 28.672-163.84 1.536-236.032-68.096 25.088-139.776 54.272-189.44 109.568-57.856 65.024-31.744 139.776-16.896 214.528 13.312-33.792 29.696-66.56 46.08-98.304 19.968-39.424 43.008-76.8 72.192-110.08 9.728-10.752 25.6 5.12 15.872 15.872-28.16 31.744-49.664 68.096-68.608 105.984-17.408 34.304-35.84 70.144-48.64 106.496 34.304-6.656 68.608-15.872 100.864-26.624 40.96-13.824 64.512-46.592 87.04-81.408z m-400.384 151.04c1.536-32.256 3.072-65.024 3.072-97.28 0.512-34.304 2.048-69.632-5.632-103.424-7.168-30.208-19.456-59.392-33.792-86.528-12.288-24.064-27.136-48.64-50.176-64-23.552-15.872-52.224-16.896-79.872-15.872 0.512 20.992 0.512 41.984 1.024 62.976 45.056-4.096 89.6 15.872 116.736 52.224 32.768 44.032 28.672 108.032 29.184 160.256 0.512 52.736 8.192 122.368-27.136 165.888-28.672 35.328-72.192 68.096-118.784 69.12-0.512 22.528-0.512 45.056-1.024 67.072 34.816 5.12 66.56-16.896 91.136-39.936 20.48-19.456 42.496-42.496 56.832-66.56 18.432-30.72 16.384-69.12 18.432-103.936z m-181.248 325.12c-8.704-16.896-8.704-37.376-8.704-55.808 0.512-22.528 1.024-44.544 1.024-67.072 0.512-49.152 1.536-98.304 1.536-147.456 1.536-196.608-0.512-393.216-5.12-589.824 0-1.536 0-2.56 0.512-3.584 11.776-74.752 135.168-54.784 185.856-53.76l66.048 1.536c15.36 0.512 31.232 0 44.544 8.704 23.552 14.848 27.648 45.568 29.696 70.656 7.68 90.624 3.584 182.272 2.048 273.408-1.536 84.48-5.12 168.448-9.216 252.416 16.896-14.848 33.792-29.184 51.712-43.008-6.144-49.664-24.576-97.28-26.112-147.456-1.024-42.496 11.776-79.36 39.424-111.616 54.272-64 136.704-96.256 213.504-123.904 6.144-2.048 10.752 1.024 12.8 5.632 0.512 0.512 1.024 1.536 1.024 2.048 32.256 78.336 49.152 189.44 0.512 264.704-22.016 33.28-46.08 68.608-83.968 85.504-23.04 10.24-48.128 14.848-72.192 20.992-16.896 4.608-33.28 8.704-50.688 12.288 6.656 3.072 12.8 6.144 18.944 9.728 1.536-0.512 2.56-1.024 4.608-1.536 54.784-6.144 103.424-1.024 147.456 34.816 42.496 34.304 67.072 94.208 77.824 146.432 1.536 8.704-5.632 14.336-12.288 13.824-0.512 0-0.512 0-1.024 0.512-62.464 10.752-137.728 17.92-190.464-24.576-22.016-17.92-49.664-40.96-57.856-69.632l-1.536-6.144c-33.28 33.792-65.024 69.12-94.72 105.472 1.024 45.568 5.12 91.648 3.584 137.216-1.536 45.568-36.864 43.52-73.216 42.496-47.104-1.024-95.744 0-142.848-4.096-28.16-3.072-58.368-11.264-72.704-38.912zM710.144 762.88c46.08 38.912 112.128 33.792 168.96 24.576-10.24-43.52-30.208-89.6-63.488-119.296-32.256-29.184-70.656-36.352-111.104-34.816 13.312 9.216 26.624 19.456 38.912 30.72 29.184 26.112 60.416 55.296 74.24 92.16 5.12 13.824-16.896 19.456-21.504 6.144-12.288-32.768-43.008-59.392-68.608-82.432-20.48-18.432-43.008-34.816-67.584-48.128-0.512 21.504-0.512 43.008 2.048 64 3.584 29.184 27.648 49.664 48.128 67.072zM363.52 515.072c-2.048 61.952-21.504 129.536-86.016 152.064h-0.512c0 26.624-0.512 53.248-0.512 79.36 41.984-2.048 84.992-34.304 107.008-68.608 13.312-20.48 13.824-45.056 14.848-68.608 1.024-25.088 1.536-50.176 1.024-75.264-0.512-45.568 4.608-103.424-21.504-142.848-22.016-33.792-61.952-51.2-101.376-47.616 0 10.752 0.512 22.016 0.512 32.768v30.208c25.088-1.024 51.712 5.632 68.608 25.088 19.456 23.04 18.432 55.296 17.92 83.456z m97.792 154.624c-2.56 32.256-8.704 59.904-28.672 86.016-36.864 48.64-91.136 110.592-157.696 103.424 0 7.68 0 14.848-0.512 22.528-0.512 20.992-4.096 49.664 10.752 66.56 10.752 12.288 28.16 15.872 43.52 17.92 39.936 5.12 80.896 3.072 121.344 4.096 10.24 0.512 20.48 0.512 30.72 1.024 7.68 0 21.504 3.072 29.184 0.512 16.384-5.12 17.408-16.896 16.896-30.72 0-9.216-0.512-18.432-0.512-27.648-1.024-34.304-1.536-68.608-2.56-102.912 0-4.096 1.536-6.656 3.584-8.704 0-0.512 0.512-0.512 0.512-1.024 34.304-41.984 70.144-81.92 108.544-119.808 0.512 0 0.512-0.512 0.512-0.512-1.024-19.456 0-39.936 0.512-58.368l-3.072-1.536c-2.048-0.512-3.072-2.048-4.608-3.072-22.528 17.92-45.056 36.864-66.048 56.832-8.704 8.192-21.504-1.536-18.944-10.752v-1.024c8.192-151.552 13.312-303.616 11.776-455.68 0-34.304 0-69.12-4.608-102.912-2.048-17.408-6.656-39.424-26.112-44.544-15.872-4.608-34.816-2.048-51.2-2.56-38.4-1.024-76.288-2.048-114.688-2.56-29.696-0.512-81.408 0-88.576 37.376l3.072 144.384c30.72-0.512 61.952 1.024 89.088 17.408 26.112 15.872 44.032 41.472 57.856 67.584 15.872 29.696 29.696 61.44 37.888 94.208 9.728 39.936 8.192 81.408 7.168 121.856-0.512 44.032-2.048 88.576-5.12 132.608z m-184.32-27.136c46.592-19.456 60.928-73.216 63.488-119.808 1.024-22.528 4.096-52.224-9.216-71.68-11.776-17.92-34.304-22.016-54.272-21.504 0.512 71.168 0.512 142.336 0 212.992z" fill="#886627" /><path d="M432.128 755.2c19.968-26.112 26.624-53.76 28.672-86.016 3.072-44.032 5.12-88.064 5.632-132.608 0.512-40.448 2.56-82.432-7.168-121.856-8.192-32.768-22.016-64.512-37.888-94.208-13.824-26.112-32.256-51.712-57.856-67.584-26.624-16.384-58.368-17.92-89.088-17.408l-3.072-144.384c7.168-36.864 59.392-37.376 88.576-37.376 38.4 0.512 76.288 1.536 114.688 2.56 16.384 0.512 35.84-2.048 51.2 2.56 19.456 5.632 23.552 27.648 26.112 44.544 4.608 33.792 4.096 68.608 4.608 102.912 1.024 152.064-3.584 304.128-11.776 455.68v1.024c-2.048 9.216 10.24 18.944 18.944 10.752 21.504-19.968 43.52-38.912 66.048-56.832 1.024 1.024 2.56 2.048 4.608 3.072l3.072 1.536c-0.512 18.432-2.048 38.912-0.512 58.368l-0.512 0.512c-38.4 37.888-74.24 78.336-108.544 119.808-0.512 0.512-0.512 0.512-0.512 1.024-2.048 2.048-4.096 4.608-3.584 8.704 1.024 34.304 1.536 68.608 2.56 102.912 0 9.216 0.512 18.432 0.512 27.648 0.512 14.336-1.024 25.6-16.896 30.72-7.68 2.56-21.504-0.512-29.184-0.512-10.24-0.512-20.48-0.512-30.72-1.024-39.936-1.024-81.408 1.024-121.344-4.096-15.36-2.048-32.768-5.632-43.52-17.92-15.36-17.408-11.264-45.568-10.752-66.56 0-7.68 0-14.848 0.512-22.528 66.048 7.168 120.32-54.784 157.184-103.424z" fill="#F4C57B" /></svg>