<?xml version="1.0" encoding="utf-8"?>
<!-- Uploaded to: SVG Repo, www.svgrepo.com, Generator: SVG Repo Mixer Tools -->
<svg width="64px" height="64px" viewBox="0 0 1024 1024" class="icon"  version="1.1" xmlns="http://www.w3.org/2000/svg"><path d="M982.016 617.472c4.096 14.848-8.192 26.112-19.456 35.84 14.848 13.312 25.6 31.232 16.896 51.712-4.096 9.728-11.264 15.872-20.48 18.944-7.68 2.56-11.264 0-11.776 8.704 0 3.584 4.096 9.728 4.608 13.824 3.584 20.48-6.144 33.28-24.576 39.424-10.752 3.584-9.728 3.072-11.776 13.312-1.024 4.608-1.024 8.192-3.072 12.288-3.584 7.68-10.752 12.8-18.432 15.872-11.264 4.608-21.504 2.56-31.232 10.752-8.192 6.656-14.336 12.8-24.576 16.384-19.968 7.168-43.008 4.096-59.904-9.216-20.48-15.872-43.52-2.048-64-21.504-19.968-18.944-44.032-32.256-62.464-52.224-38.4-40.448-78.336-87.04-77.312-145.92-10.24 0-20.48 0.512-30.208 1.024 3.072 126.464 4.096 252.416 3.584 378.88 0 13.824-21.504 13.824-21.504 0 1.024-125.952-0.512-252.416-3.072-378.368-10.752 0.512-22.016 1.024-32.768 1.536-0.512 1.536-1.536 3.072-3.072 4.608-25.6 20.992-38.4 50.688-53.248 79.872-14.848 28.672-33.28 55.296-56.32 77.824-18.944 18.432-50.176 46.592-77.824 49.152-11.776 1.024-22.016-4.096-28.16-12.288-12.8 10.24-27.648 18.432-45.056 15.36-15.36-2.56-24.064-11.264-28.672-23.04-13.312 8.192-29.696 9.216-44.032-1.536-17.408-13.312-18.432-32.256-12.288-50.688-15.36 2.048-31.232 2.56-41.472-8.704-12.8-13.312-6.144-26.624 2.56-38.4-17.408-4.608-32.768-15.872-33.792-36.352-0.512-10.752 4.608-20.48 12.288-27.648 1.536-1.024 15.872-10.24 15.872-8.704 0-0.512-7.68-8.192-8.192-9.728-11.776-20.48-0.512-34.816 12.8-50.176 15.872-17.92-1.024-46.592 24.576-59.392 3.584-1.536 27.648-4.096 29.696-3.072 0.512-1.536-2.56-9.216-2.56-11.264 0-4.096 1.024-7.68 3.072-11.264 11.264-17.408 46.592-9.216 62.976-9.216 8.192 0 25.088 3.072 31.232-4.608 1.536-1.536 1.024-6.144 2.56-8.192 3.584-5.632 9.728-7.168 15.872-7.68 26.112-2.56 54.272 13.824 76.288 25.6 25.6 13.824 50.176 29.696 72.704 48.128s43.52 38.4 62.464 60.416c14.336-0.512 28.672-1.024 43.008-2.048-0.512-15.36-1.024-30.72-1.024-46.08C461.824 516.608 408.576 465.92 363.52 408.576c-24.576-31.232-83.456-96.768-47.104-136.192 1.536-1.536 6.656-1.024 7.68-2.56 1.536-3.072-7.168-13.824-8.704-15.872-3.584-4.096-8.192-6.144-11.264-10.24-6.656-8.192-9.728-18.432-8.704-29.184 1.536-20.992 18.944-35.84 39.424-37.376 7.68-0.512 13.824 2.56 18.944-3.584s2.048-20.992 1.536-28.672c0-11.264-1.536-23.04 6.656-31.744 6.144-6.656 14.848-8.704 23.552-8.192 4.608 0 8.704 2.048 12.8 2.56 7.68 0.512 4.096 3.584 5.632-3.584 1.024-4.608 1.536-8.704 2.048-12.8l19.968 1.536c-0.512 3.584-0.512 7.68-0.512 11.776 0 8.192 1.536 17.92-5.632 24.576-6.144 5.632-13.312 4.608-20.48 2.56-11.264-3.584-17.92-10.752-23.04 6.144-2.048 6.656 0.512 17.92 0.512 25.088 0 24.064-5.632 36.352-31.232 37.376-12.8 0.512-28.672 0-29.184 18.432-0.512 11.776 10.24 17.408 17.92 24.576 6.656 6.144 12.288 11.264 13.824 20.48 1.536 7.168 0.512 15.872-5.12 21.504-3.072 3.072-7.68 3.584-10.752 6.144-8.704 7.168-6.144 18.432-2.56 29.184 10.752 31.232 36.864 60.928 57.344 86.016 40.96 50.688 88.576 95.744 141.312 134.656C578.048 502.272 624.64 460.8 667.648 416.256c21.504-22.528 41.984-46.08 61.952-70.144 10.24-12.288 25.088-27.648 25.6-45.056 0.512-22.528-18.432-27.136-36.352-30.208-10.752-2.048-9.728-17.92 0-20.48 14.848-3.584 33.28-18.432 35.328-35.84l20.48 1.024c-2.048 16.896-11.264 32.256-24.576 42.496 16.896 8.704 28.672 23.04 26.624 46.08-3.584 33.792-37.376 64.512-58.88 88.576-53.248 60.416-112.128 115.2-176.64 163.84v1.024c0.512 15.872 1.024 31.744 1.024 47.616 13.824-0.512 27.648-1.024 41.472-1.024h2.56c46.08-49.152 98.816-101.376 168.96-110.08 19.968-2.56 35.84 3.072 55.296 6.656 20.48 4.096 39.936-3.072 60.416-0.512 12.8 1.536 23.04 11.776 24.064 22.528 16.384 2.048 35.84 4.608 47.104 15.36 6.144 5.632 9.728 14.336 9.216 22.528-0.512 5.12-8.704 13.312-8.704 15.872 0.512 6.144 19.968 16.896 24.576 20.992 5.632 5.12 12.8 12.288 14.848 19.968z m-22.528 8.704c2.048-8.704-8.192-14.336-14.336-19.456-8.192-6.656-19.968-13.824-24.064-24.064-2.048-5.12-1.536-8.192 0.512-13.312 0.512-1.024 6.144-8.192 6.144-8.192 1.536-16.384-40.448-17.92-50.688-19.456-9.216-2.048-9.728-14.848-2.56-19.456-3.072 2.048-20.48 0-26.112 0.512-7.68 0.512-14.848 1.536-22.528 1.536-10.752 0-20.48-3.072-30.72-5.632-29.184-7.68-54.784-1.536-82.432 10.24-47.616 20.48-82.944 60.416-117.76 97.28-0.512 32.768 13.312 59.392 33.28 84.992 17.92 23.552 38.4 49.664 62.976 66.048 9.728 6.144 19.456 11.776 27.648 19.968 4.608 4.608 8.192 10.24 13.312 13.312 7.168 4.608 12.288 2.048 19.456 1.024 25.6-3.072 33.28 19.968 57.344 23.552 18.432 3.072 28.672-5.12 40.96-16.896 6.656-6.144 9.728-8.704 18.944-10.24 6.656-1.024 15.36 1.536 20.48-3.584 5.12-4.608 4.096-16.384 5.632-22.016 2.048-7.168 7.168-12.288 13.824-15.36 4.608-2.048 11.264-1.024 14.848-3.072 12.288-7.168 3.584-18.944 1.536-27.648-2.048-7.68-3.584-14.336 1.024-21.504 5.12-7.168 11.776-7.168 18.944-10.24 26.624-10.752 10.752-30.72-5.12-42.496-5.632-4.096-7.68-11.776-2.048-16.896 4.608-3.072 19.968-13.824 21.504-18.944zM406.528 716.8c18.432-31.744 31.232-67.072 57.856-93.184-39.424-46.08-87.04-83.968-140.8-111.104-12.8-6.144-34.304-19.456-49.664-17.92-2.56 0.512-3.584 0-3.584 0s0.512 1.536-2.56 5.632c-2.56 3.584-2.56 5.12-6.144 7.68-17.408 14.848-51.712 7.168-72.192 6.656h-11.776c-5.12-0.512-6.144 1.024-3.584 5.12-0.512 3.072 1.536 6.656 1.024 10.24-1.024 6.144-4.096 10.752-9.728 12.8-13.312 5.632-33.28-6.656-36.352 15.36-1.536 10.752 2.048 19.968-3.072 30.72s-25.088 19.456-22.528 32.768c2.048 10.24 14.848 11.776 15.36 22.016 0.512 7.68-5.632 12.8-10.752 16.896-7.68 6.656-10.752 7.168-15.36 16.896-7.68 9.216-4.608 16.384 10.24 21.504 5.632 1.536 11.776 2.048 17.408 1.536 7.68-0.512 13.824 9.728 9.216 15.872-5.12 7.168-20.48 19.968-7.68 30.208 4.608 3.584 26.112-3.072 32.768-4.096 8.704-1.024 17.408 6.656 12.288 15.872-5.632 9.728-11.264 19.456-8.192 30.72 5.12 17.408 24.576 18.944 33.792 3.584 6.144-9.728 18.432-4.608 19.968 5.632 5.12 40.448 39.936 16.384 56.32 0.512 7.68-7.168 20.992 0 17.92 10.24 8.704 6.656 16.384 7.68 23.552 2.56 3.072-2.048 6.656-3.584 9.728-5.632 4.096-2.56 8.192-5.12 12.288-8.192 11.264-7.68 22.016-16.384 31.744-26.112 16.896-15.36 30.72-34.304 42.496-54.784z" fill="#036237" /><path d="M944.64 606.72c6.144 5.12 16.384 10.752 14.336 19.456-1.024 5.632-16.384 15.872-20.48 19.968-5.12 5.12-3.072 12.8 2.048 16.896 15.872 11.776 31.232 32.256 5.12 42.496-7.168 3.072-14.336 3.072-18.944 10.24-4.608 7.168-3.072 13.824-1.024 21.504 2.56 8.704 10.752 20.48-1.536 27.648-4.096 2.56-10.24 1.024-14.848 3.072-6.656 3.072-11.776 8.192-13.824 15.36-2.048 5.632-1.024 17.408-5.632 22.016-5.632 5.12-14.336 2.56-20.48 3.584-9.216 1.536-12.288 4.096-18.944 10.24-12.288 11.776-22.528 19.968-40.96 16.896-24.064-3.584-31.232-27.136-57.344-23.552-7.168 1.024-12.288 3.584-19.456-1.024-5.632-3.584-9.216-9.216-13.312-13.312-8.192-8.192-17.92-13.824-27.648-19.968-25.088-16.384-45.056-42.496-62.976-66.048-19.456-26.112-33.28-52.736-33.28-84.992 34.304-36.864 70.144-76.8 117.76-97.28 27.648-11.776 52.736-17.92 82.432-10.24 10.24 2.56 20.48 5.12 30.72 5.632 7.68 0 14.848-1.024 22.528-1.536 5.632-0.512 23.04 1.024 26.112-0.512-7.168 4.608-6.656 17.408 2.56 19.456 10.24 2.048 52.224 3.584 50.688 19.456 0 0-5.632 7.168-6.144 8.192-2.048 5.12-2.56 8.192-0.512 13.312 3.072 9.216 15.36 16.384 23.04 23.04z" fill="#88AB77" /><path d="M774.656 204.8c0 3.584 0 7.168-0.512 10.752l-20.48-1.024c0.512-3.584 0-7.168-1.024-10.752-5.12-17.92-32.768-10.752-47.616-13.824-7.68-1.536-10.24-12.8-4.608-17.92 32.256-29.184-4.608-75.264-40.448-51.712-6.144 4.096-16.896-1.024-15.872-9.216 2.56-20.992 4.096-56.832-28.672-45.568-13.824 5.12-25.088 14.848-39.424 18.944-8.704 2.56-14.336-5.632-13.312-13.312 4.096-28.16-24.576-51.2-50.688-37.376-19.968 10.752-15.872 33.792-29.184 49.152-4.608 5.632-13.312 3.072-16.896-2.048-8.192-11.776-24.064-12.8-33.792-2.56-4.096 4.096-5.632 8.704-6.656 13.824l-19.968-1.536c0.512-6.656 1.536-13.824 6.144-20.992 5.12-8.192 12.8-14.336 21.504-17.408 13.824-5.12 27.648-2.56 38.912 5.12 1.536-5.632 2.048-11.776 4.608-16.896 3.584-7.68 8.704-13.824 15.36-18.944 11.776-9.728 27.136-14.848 41.984-13.312 27.136 2.56 45.568 25.088 48.64 50.176 18.432-9.216 36.352-23.04 57.856-14.336 20.992 8.704 26.112 29.696 25.6 50.176 20.48-5.632 43.52 0.512 57.344 17.92 13.312 16.896 13.824 39.424 4.608 57.856 10.24 0 19.968-1.024 29.184 4.096 11.776 6.656 16.896 18.432 17.408 30.72z" fill="#036237" /><path d="M718.336 270.848c17.92 3.072 36.864 7.68 36.352 30.208-0.512 16.896-15.36 32.768-25.6 45.056-19.456 24.064-40.448 47.616-61.952 70.144-42.496 44.544-89.088 86.016-138.24 123.392-52.224-38.912-99.84-83.968-141.312-134.656-20.48-25.088-46.592-54.784-57.344-86.016-3.584-10.752-6.144-21.504 2.56-29.184 3.072-2.56 7.68-2.56 10.752-6.144 5.12-5.632 6.144-14.336 5.12-21.504-1.536-9.216-7.168-14.848-13.824-20.48-7.68-6.656-18.432-12.288-17.92-24.576 1.024-18.432 16.384-17.92 29.184-18.432 25.6-0.512 31.744-12.8 31.232-37.376 0-7.168-2.56-17.92-0.512-25.088 5.12-16.896 12.288-9.728 23.04-6.144 7.168 2.048 14.336 3.584 20.48-2.56 6.656-6.656 5.632-15.872 5.632-24.576 0-4.096 0-7.68 0.512-11.776 1.024-5.12 2.56-9.728 6.656-13.824 9.728-10.24 25.6-9.216 33.792 2.56 3.584 5.12 11.776 7.68 16.896 2.048 13.312-15.36 9.216-38.4 29.184-49.152 26.112-13.824 54.784 9.216 50.688 37.376-1.024 7.68 4.608 15.872 13.312 13.312 14.336-4.096 25.6-13.824 39.424-18.944 32.768-11.264 31.744 24.576 28.672 45.568-1.024 8.192 9.728 13.312 15.872 9.216 35.84-24.064 72.704 22.016 40.448 51.712-5.632 5.12-3.072 16.384 4.608 17.92 14.848 3.072 42.496-4.608 47.616 13.824 1.024 3.584 1.024 7.168 1.024 10.752-2.048 16.896-19.968 31.744-35.328 35.84-10.752 3.072-11.776 19.456-1.024 21.504zM464.384 624.128c-27.136 25.6-39.424 60.928-57.856 93.184-11.776 20.48-25.6 39.424-42.496 55.808-9.728 9.728-20.48 18.432-31.744 26.112-4.096 2.56-8.192 5.632-12.288 8.192-3.072 2.048-6.144 4.096-9.728 5.632-6.656 5.12-14.848 4.096-23.552-2.56 3.072-10.24-10.24-17.92-17.92-10.24-16.384 15.872-51.2 39.936-56.32-0.512-1.024-9.728-13.824-15.36-19.968-5.632-9.728 15.872-28.672 14.336-33.792-3.584-3.072-11.264 2.56-21.504 8.192-30.72 5.12-8.704-3.584-16.896-12.288-15.872-6.144 1.024-28.16 7.68-32.768 4.096-13.312-10.24 2.048-23.04 7.68-30.208 4.608-6.656-1.536-16.384-9.216-15.872-6.144 0.512-11.776 0-17.408-1.536-14.336-5.12-17.92-12.288-10.24-21.504 4.608-9.728 7.68-10.24 15.36-16.896 5.12-4.608 11.264-9.728 10.752-16.896-0.512-10.24-13.312-11.776-15.36-22.016-2.56-13.824 16.896-22.016 22.528-32.768 5.12-10.752 1.536-19.968 3.072-30.72 3.072-22.016 23.04-9.728 36.352-15.36 5.632-2.56 8.704-7.168 9.728-12.8 0.512-3.584-1.536-7.168-1.024-10.24-2.56-4.096-1.536-5.632 3.584-5.12h11.776c20.48 0.512 54.784 7.68 72.192-6.656 3.584-3.072 3.584-4.608 6.144-7.68 3.072-4.096 2.56-5.12 2.56-5.632 0 0 1.024 0.512 3.584 0 15.36-2.048 36.864 11.264 49.664 17.92 53.76 26.112 101.376 64 140.8 110.08z" fill="#88AB77" /><path d="M153.6 525.824z" fill="#036237" /></svg>