<?xml version="1.0" encoding="utf-8"?>
<!-- Uploaded to: SVG Repo, www.svgrepo.com, Generator: SVG Repo Mixer Tools -->
<svg width="64px" height="64px" viewBox="0 0 1024 1024" class="icon"  version="1.1" xmlns="http://www.w3.org/2000/svg"><path d="M495.616 43.52c1.024 42.496 3.072 167.424 4.096 302.592L394.24 124.416c44.544-39.424 82.432-67.584 101.376-80.896zM604.16 110.592l-87.552 228.864c-1.024-132.096-3.584-252.928-4.096-295.936 33.792 22.016 64.512 44.544 91.648 67.072zM843.264 513.024c1.024 14.336-0.512 29.184-2.56 44.544-0.512 3.584-1.024 7.68-1.536 11.264-4.608 40.448-11.264 76.288-19.968 108.032-114.688 59.392-194.048 66.56-240.128 61.952-33.28-3.584-54.272-13.312-65.024-19.456 44.544-37.888 254.976-216.576 319.488-264.704 5.632 23.04 8.192 43.008 9.728 58.368z" fill="#4EA3A9" /><path d="M371.2 843.776c13.312 1.024 26.112 0.512 38.912-1.024l2.56 16.384c-8.704 1.536-17.408 2.048-26.624 2.048-5.12 0-10.752 0-15.872-0.512l1.024-16.896zM538.112 562.688l14.848 8.192c-8.704 17.408-16.896 32.256-23.04 44.544l-14.336-9.216c6.656-12.288 14.336-27.136 22.528-43.52z" fill="#1D535C" /><path d="M723.456 230.912c-41.472 56.832-132.608 229.888-184.832 331.264-8.704 16.384-16.384 31.232-22.016 43.52 1.024-66.56 1.536-144.384 1.024-220.672l100.864-263.68c41.984 36.864 76.8 73.728 104.96 109.568zM498.176 643.072c-0.512 21.504-1.024 40.96-2.048 58.88C435.712 639.488 207.872 474.112 170.496 446.976c18.944-69.12 56.32-133.12 96.768-186.88 68.096 99.328 223.744 335.36 230.912 382.976zM812.544 698.88c-0.512 2.048-1.536 4.096-2.048 5.632-5.632 15.36-11.776 29.696-18.944 42.496-19.968 36.864-45.568 61.952-76.288 75.776-93.184 40.96-205.312-40.448-206.336-41.472l-1.536-1.024c0.512-6.656 1.024-13.824 1.536-20.992 1.024-6.656 1.536-14.848 2.048-23.552 16.896 8.704 47.104 19.968 93.184 19.968 50.176 1.024 118.784-12.288 208.384-56.832zM500.224 386.048c0.512 73.728 0 148.992-1.024 214.016-49.152-100.352-195.584-315.904-221.184-353.28 13.824-17.408 28.16-33.792 41.984-49.152 20.48-22.528 41.472-43.008 61.44-61.44l118.784 249.856z" fill="#4EA3A9" /><path d="M843.264 513.024c-1.536-15.36-4.096-35.328-9.216-58.88-64 48.128-274.944 226.304-319.488 264.704 10.752 6.144 31.744 15.872 65.024 19.456 46.08 4.608 125.44-2.048 240.128-61.952 8.704-31.232 15.36-67.072 19.968-108.032 0.512-3.584 1.024-7.68 1.536-11.264 1.536-14.848 3.072-29.184 2.048-44.032z m-330.752-469.504c1.024 43.008 3.072 163.328 4.096 295.936L604.16 110.592c-27.136-22.528-57.856-45.056-91.648-67.072z m1.024 654.336c61.952-52.736 261.12-221.184 315.904-261.12-14.336-52.736-41.984-119.808-95.232-192C692.736 304.128 604.16 471.552 552.96 570.368l-14.848-8.192c52.224-101.888 143.872-274.944 184.832-331.264-28.16-35.84-62.976-72.704-105.472-109.568L517.12 385.536c0.512 76.288 0 154.112-1.024 220.672l14.336 9.216c-7.68 15.36-13.312 25.6-14.848 29.696-1.024 18.432-1.536 36.352-2.048 52.736z m-14.336-98.304c1.024-65.024 1.024-139.776 1.024-214.016l-118.784-249.856c-19.968 18.432-40.96 38.912-61.44 61.44-13.824 14.848-28.16 31.232-41.984 49.152 25.6 37.376 172.032 252.928 221.184 353.28z m-231.936-339.456c-40.448 53.76-77.824 117.248-96.768 186.88 37.376 27.136 265.216 192.512 325.632 254.976 1.024-17.408 1.536-37.376 2.048-58.88-7.168-47.616-162.816-283.648-230.912-382.976z m-107.52 318.976c4.096 33.28 10.752 63.488 19.968 89.6 22.016 13.824 187.392 112.64 308.224 48.64-47.616-53.248-270.848-216.064-321.536-252.928-8.192 36.864-11.264 75.264-6.656 114.688z m339.968-232.96c-1.024-135.168-3.072-260.096-4.096-302.592-18.944 13.312-57.344 41.472-101.376 80.896l105.472 221.696zM492.032 757.76c1.024-7.168 1.536-15.872 2.56-25.088-56.32 29.184-129.024 30.208-211.456 3.072-39.936-13.312-73.728-30.208-93.696-41.472 39.424 92.672 107.008 137.216 167.424 147.968 5.12 1.024 9.728 1.536 14.848 2.048l-1.024 16.896c-5.632-0.512-11.264-1.024-16.384-2.048-87.552-15.36-188.928-96.256-210.432-277.504-8.192-70.144 5.632-143.36 40.96-217.6 28.16-58.88 69.632-118.784 123.904-177.664 92.16-100.352 189.952-163.84 190.976-164.864l4.608-3.072 4.608 3.072C803.84 206.336 852.48 425.984 860.16 511.488c1.536 16.384-0.512 32.256-2.56 47.616-0.512 3.584-1.024 7.68-1.536 11.264-6.144 54.272-15.872 100.864-30.208 139.776l-15.872-5.632c0.512-2.048 1.536-4.096 2.048-5.632-89.6 44.544-158.208 57.856-207.872 57.856-46.08 0-76.288-11.264-93.184-19.968-0.512 8.704-1.536 16.384-2.048 23.552-1.024 7.168-1.536 13.824-1.536 20.992l1.536 1.024c1.024 1.024 113.664 81.92 206.336 41.472 30.72-13.312 56.32-38.912 76.288-75.776l14.848 7.68c-22.016 40.448-50.176 68.096-84.48 83.456-88.064 38.4-186.88-18.944-215.552-37.888-0.512 114.688 50.176 192.512 50.688 193.024l-13.824 9.216c-2.56-3.584-48.64-73.728-53.248-181.76-19.456 19.456-46.592 32.768-77.312 37.376l-2.56-16.384c33.792-5.12 62.464-21.504 79.36-46.592 0.512-12.288 1.024-25.088 2.56-38.4z" fill="#1D535C" /><path d="M494.592 732.672c-0.512 9.728-1.536 17.92-2.56 25.088-1.536 13.312-2.56 26.112-2.56 38.4-16.896 25.088-45.568 41.472-79.36 46.592-12.288 2.048-25.088 2.56-38.912 1.024-5.12-0.512-9.728-1.024-14.848-2.048-60.416-10.752-128-55.296-167.424-147.968 20.48 11.264 53.76 28.16 93.696 41.472 82.944 27.648 155.648 26.624 211.968-2.56z" fill="#4EA3A9" /><path d="M810.496 705.024l15.872 5.632c-5.632 16.384-12.288 31.232-19.968 44.544l-14.848-7.68c7.168-12.8 13.312-27.136 18.944-42.496z" fill="#1D535C" /><path d="M487.936 717.312c-120.832 64-286.208-34.816-308.224-48.64-8.704-26.624-15.872-56.32-19.968-89.6-4.608-39.424-1.536-77.312 6.656-114.176 50.688 36.352 273.92 199.168 321.536 252.416zM734.208 245.248c53.248 71.68 80.896 138.752 95.232 192-54.784 39.936-253.952 208.384-315.904 261.12 0.512-16.384 1.536-34.304 2.048-53.248l14.848-29.696c6.144-12.288 13.824-27.136 23.04-44.544 50.688-99.328 139.264-266.752 180.736-325.632z" fill="#4EA3A9" /></svg>